<svg xmlns="http://www.w3.org/2000/svg" viewBox="0 0 128 128" fill="none">
  <defs>
    <linearGradient id="crestGrad" x1="0" y1="0" x2="1" y2="1">
      <stop offset="0" stop-color="#1B2550"/>
      <stop offset="1" stop-color="#3B82F6"/>
    </linearGradient>
  </defs>
  <!-- Shield -->
  <path d="M64 10c18 12 36 12 54 0v48c0 28-22 52-54 60C32 110 10 86 10 58V10c18 12 36 12 54 0Z" fill="url(#crestGrad)"/>
  <!-- Eagle head (minimal silhouette) -->
  <path d="M84 66c-10 6-22 6-32 0 3-10 10-16 22-18 6-1 10-5 12-10-10 4-18 2-24-3 8-4 18-6 28-4-1 10-3 20-6 26 4 0 8-1 12-4-2 8-6 12-12 13Z" fill="#FFFFFF" opacity=".98"/>
  <!-- Eye -->
  <circle cx="82" cy="48" r="2.6" fill="#0F172A"/>
  <!-- Beak (gold) -->
  <path d="M92 58l14 6-14 6c-2-2-2-10 0-12Z" fill="#F59E0B"/>
</svg>
